<svg width="512" height="512" viewBox="0 0 512 512" fill="none" xmlns="http://www.w3.org/2000/svg">
<rect width="512" height="512" fill="#0D1B2A"/>
<path d="M258.225 103.81C284.98 104.209 310.184 110.833 332.477 122.282L311.105 158.56C294.929 150.65 276.796 146.091 257.599 145.805C187.892 144.767 130.541 200.434 129.502 270.141C128.463 339.848 184.13 397.199 253.838 398.238C323.545 399.277 380.896 343.61 381.935 273.902C382.148 259.578 379.965 245.777 375.76 232.878L401.841 188.606C416.311 213.898 424.395 243.281 423.93 274.528C422.546 367.429 346.112 441.618 253.212 440.233C160.311 438.849 86.1222 362.416 87.5064 269.515C88.8908 176.615 165.324 102.426 258.225 103.81Z" fill="white"/>
<path d="M258.225 103.81L258.232 103.31V103.31L258.225 103.81ZM332.477 122.282L332.908 122.536L333.177 122.08L332.706 121.838L332.477 122.282ZM311.105 158.56L310.886 159.009L311.301 159.212L311.536 158.814L311.105 158.56ZM257.599 145.805L257.606 145.305V145.305L257.599 145.805ZM129.502 270.141L129.002 270.134V270.134L129.502 270.141ZM253.838 398.238L253.83 398.738V398.738L253.838 398.238ZM381.935 273.902L382.435 273.91V273.91L381.935 273.902ZM375.76 232.878L375.329 232.624L375.215 232.819L375.285 233.033L375.76 232.878ZM401.841 188.606L402.275 188.358L401.848 187.611L401.411 188.353L401.841 188.606ZM423.93 274.528L424.43 274.536V274.536L423.93 274.528ZM253.212 440.233L253.204 440.733V440.733L253.212 440.233ZM87.5064 269.515L87.0064 269.508V269.508L87.5064 269.515ZM258.225 103.81L258.217 104.31C284.894 104.707 310.022 111.312 332.249 122.727L332.477 122.282L332.706 121.838C310.345 110.354 285.066 103.71 258.232 103.31L258.225 103.81ZM332.477 122.282L332.046 122.029L310.674 158.306L311.105 158.56L311.536 158.814L332.908 122.536L332.477 122.282ZM311.105 158.56L311.325 158.111C295.084 150.169 276.879 145.592 257.606 145.305L257.599 145.805L257.591 146.305C276.714 146.59 294.774 151.131 310.886 159.009L311.105 158.56ZM257.599 145.805L257.606 145.305C187.623 144.263 130.045 200.15 129.002 270.134L129.502 270.141L130.002 270.148C131.036 200.718 188.16 145.271 257.591 146.305L257.599 145.805ZM129.502 270.141L129.002 270.134C127.959 340.117 183.847 397.695 253.83 398.738L253.838 398.238L253.845 397.738C184.414 396.703 128.967 339.58 130.002 270.148L129.502 270.141ZM253.838 398.238L253.83 398.738C323.814 399.781 381.392 343.893 382.435 273.91L381.935 273.902L381.435 273.895C380.4 343.326 323.276 398.773 253.845 397.738L253.838 398.238ZM381.935 273.902L382.435 273.91C382.649 259.53 380.457 245.674 376.235 232.723L375.76 232.878L375.285 233.033C379.473 245.88 381.647 259.627 381.435 273.895L381.935 273.902ZM375.76 232.878L376.191 233.132L402.272 188.86L401.841 188.606L401.411 188.353L375.329 232.624L375.76 232.878ZM401.841 188.606L401.407 188.855C415.834 214.071 423.894 243.366 423.43 274.521L423.93 274.528L424.43 274.536C424.897 243.197 416.788 213.726 402.275 188.358L401.841 188.606ZM423.93 274.528L423.43 274.521C422.05 367.145 345.844 441.114 253.219 439.734L253.212 440.233L253.204 440.733C346.381 442.122 423.042 367.712 424.43 274.536L423.93 274.528ZM253.212 440.233L253.219 439.734C160.595 438.353 86.6263 362.147 88.0063 269.523L87.5064 269.515L87.0064 269.508C85.6181 362.685 160.028 439.345 253.204 440.733L253.212 440.233ZM87.5064 269.515L88.0063 269.523C89.3867 176.898 165.593 102.93 258.217 104.31L258.225 103.81L258.232 103.31C165.055 101.922 88.395 176.331 87.0064 269.508L87.5064 269.515Z" fill="white"/>
<path d="M400.589 99.5466C405.058 92.6879 409.263 82.6391 416.121 87.1073C422.98 91.5755 417.078 99.4235 412.61 106.282L251.534 366.303L194.04 289.385C189.139 282.829 190.482 273.541 197.038 268.64C203.594 263.739 212.882 265.082 217.783 271.638L249.865 314.558L400.589 99.5466Z" fill="#FF7A00" stroke="#FF7A00" stroke-width="15" stroke-linecap="round"/>
</svg>
