<svg width="800" height="800" viewBox="0 0 800 800" fill="none" xmlns="http://www.w3.org/2000/svg">
<rect width="800" height="800" fill="white"/>
<path d="M402.225 137.81C428.98 138.209 454.184 144.833 476.477 156.282L455.105 192.56C438.929 184.65 420.796 180.091 401.599 179.805C331.892 178.767 274.541 234.434 273.502 304.141C272.463 373.848 328.13 431.199 397.838 432.238C467.545 433.277 524.896 377.61 525.935 307.902C526.148 293.578 523.965 279.777 519.76 266.878L545.841 222.606C560.311 247.898 568.395 277.281 567.93 308.528C566.546 401.429 490.112 475.618 397.212 474.233C304.311 472.849 230.122 396.416 231.506 303.515C232.891 210.615 309.324 136.426 402.225 137.81Z" fill="#0D2137"/>
<path d="M402.225 137.81L402.232 137.31V137.31L402.225 137.81ZM476.477 156.282L476.908 156.536L477.177 156.08L476.706 155.838L476.477 156.282ZM455.105 192.56L454.886 193.009L455.301 193.212L455.536 192.814L455.105 192.56ZM401.599 179.805L401.606 179.305V179.305L401.599 179.805ZM273.502 304.141L273.002 304.134V304.134L273.502 304.141ZM397.838 432.238L397.83 432.738V432.738L397.838 432.238ZM525.935 307.902L526.435 307.91V307.91L525.935 307.902ZM519.76 266.878L519.329 266.624L519.215 266.819L519.285 267.033L519.76 266.878ZM545.841 222.606L546.275 222.358L545.848 221.611L545.411 222.353L545.841 222.606ZM567.93 308.528L568.43 308.536V308.536L567.93 308.528ZM397.212 474.233L397.204 474.733V474.733L397.212 474.233ZM231.506 303.515L231.006 303.508V303.508L231.506 303.515ZM402.225 137.81L402.217 138.31C428.894 138.707 454.022 145.312 476.249 156.727L476.477 156.282L476.706 155.838C454.345 144.354 429.066 137.71 402.232 137.31L402.225 137.81ZM476.477 156.282L476.046 156.029L454.674 192.306L455.105 192.56L455.536 192.814L476.908 156.536L476.477 156.282ZM455.105 192.56L455.325 192.111C439.084 184.169 420.879 179.592 401.606 179.305L401.599 179.805L401.591 180.305C420.714 180.59 438.774 185.131 454.886 193.009L455.105 192.56ZM401.599 179.805L401.606 179.305C331.623 178.263 274.045 234.15 273.002 304.134L273.502 304.141L274.002 304.148C275.036 234.718 332.16 179.271 401.591 180.305L401.599 179.805ZM273.502 304.141L273.002 304.134C271.959 374.117 327.847 431.695 397.83 432.738L397.838 432.238L397.845 431.738C328.414 430.703 272.967 373.58 274.002 304.148L273.502 304.141ZM397.838 432.238L397.83 432.738C467.814 433.781 525.392 377.893 526.435 307.91L525.935 307.902L525.435 307.895C524.4 377.326 467.276 432.773 397.845 431.738L397.838 432.238ZM525.935 307.902L526.435 307.91C526.649 293.53 524.457 279.674 520.235 266.723L519.76 266.878L519.285 267.033C523.473 279.88 525.647 293.627 525.435 307.895L525.935 307.902ZM519.76 266.878L520.191 267.132L546.272 222.86L545.841 222.606L545.411 222.353L519.329 266.624L519.76 266.878ZM545.841 222.606L545.407 222.855C559.834 248.071 567.894 277.366 567.43 308.521L567.93 308.528L568.43 308.536C568.897 277.197 560.788 247.726 546.275 222.358L545.841 222.606ZM567.93 308.528L567.43 308.521C566.05 401.145 489.844 475.114 397.219 473.734L397.212 474.233L397.204 474.733C490.381 476.122 567.042 401.712 568.43 308.536L567.93 308.528ZM397.212 474.233L397.219 473.734C304.595 472.353 230.626 396.147 232.006 303.523L231.506 303.515L231.006 303.508C229.618 396.685 304.028 473.345 397.204 474.733L397.212 474.233ZM231.506 303.515L232.006 303.523C233.387 210.898 309.593 136.93 402.217 138.31L402.225 137.81L402.232 137.31C309.055 135.922 232.395 210.331 231.006 303.508L231.506 303.515Z" fill="#0D2137"/>
<path d="M544.589 133.547C549.058 126.688 553.263 116.639 560.121 121.107C566.98 125.575 561.078 133.423 556.61 140.282L395.534 400.303L338.04 323.385C333.139 316.829 334.482 307.541 341.038 302.64C347.594 297.739 356.882 299.082 361.783 305.638L393.865 348.558L544.589 133.547Z" fill="#FF7A00" stroke="#FF7A00" stroke-width="15" stroke-linecap="round"/>
<path d="M130.75 623.25C124.583 623.25 118.833 622.125 113.5 619.875C108.167 617.542 103.5 614.333 99.5 610.25C95.5 606.083 92.375 601.292 90.125 595.875C87.9583 590.458 86.875 584.667 86.875 578.5C86.875 572.25 87.9583 566.458 90.125 561.125C92.375 555.708 95.4583 550.958 99.375 546.875C103.375 542.792 108 539.625 113.25 537.375C118.583 535.125 124.333 534 130.5 534C136.667 534 142.375 535.125 147.625 537.375C152.958 539.625 157.625 542.792 161.625 546.875C165.625 550.958 168.75 555.708 171 561.125C173.25 566.542 174.375 572.375 174.375 578.625C174.375 584.792 173.25 590.583 171 596C168.75 601.417 165.625 606.167 161.625 610.25C157.708 614.333 153.083 617.542 147.75 619.875C142.5 622.125 136.833 623.25 130.75 623.25ZM130.5 612C136.75 612 142.208 610.583 146.875 607.75C151.625 604.833 155.375 600.875 158.125 595.875C160.875 590.792 162.25 585 162.25 578.5C162.25 573.667 161.458 569.25 159.875 565.25C158.292 561.167 156.083 557.625 153.25 554.625C150.417 551.625 147.083 549.333 143.25 547.75C139.417 546.083 135.167 545.25 130.5 545.25C124.333 545.25 118.875 546.667 114.125 549.5C109.458 552.333 105.75 556.25 103 561.25C100.333 566.25 99 572 99 578.5C99 583.333 99.75 587.833 101.25 592C102.833 596.083 105 599.625 107.75 602.625C110.583 605.542 113.917 607.833 117.75 609.5C121.667 611.167 125.917 612 130.5 612ZM215.618 623.25C209.785 623.25 204.493 621.875 199.743 619.125C195.076 616.375 191.368 612.667 188.618 608C185.951 603.25 184.618 598 184.618 592.25C184.618 586.417 185.951 581.167 188.618 576.5C191.368 571.833 195.076 568.167 199.743 565.5C204.493 562.75 209.785 561.375 215.618 561.375C220.202 561.375 224.452 562.25 228.368 564C232.285 565.667 235.66 568.125 238.493 571.375L230.993 578.875C229.16 576.708 226.91 575.083 224.243 574C221.66 572.833 218.785 572.25 215.618 572.25C211.868 572.25 208.535 573.125 205.618 574.875C202.701 576.542 200.41 578.875 198.743 581.875C197.076 584.875 196.243 588.333 196.243 592.25C196.243 596.167 197.076 599.625 198.743 602.625C200.41 605.625 202.701 608 205.618 609.75C208.535 611.5 211.868 612.375 215.618 612.375C218.785 612.375 221.66 611.833 224.243 610.75C226.91 609.583 229.201 607.917 231.118 605.75L238.493 613.25C235.743 616.417 232.368 618.875 228.368 620.625C224.452 622.375 220.202 623.25 215.618 623.25ZM275.555 623.25C269.721 623.25 264.43 621.875 259.68 619.125C255.013 616.375 251.305 612.667 248.555 608C245.888 603.25 244.555 598 244.555 592.25C244.555 586.417 245.888 581.167 248.555 576.5C251.305 571.833 255.013 568.167 259.68 565.5C264.43 562.75 269.721 561.375 275.555 561.375C280.138 561.375 284.388 562.25 288.305 564C292.221 565.667 295.596 568.125 298.43 571.375L290.93 578.875C289.096 576.708 286.846 575.083 284.18 574C281.596 572.833 278.721 572.25 275.555 572.25C271.805 572.25 268.471 573.125 265.555 574.875C262.638 576.542 260.346 578.875 258.68 581.875C257.013 584.875 256.18 588.333 256.18 592.25C256.18 596.167 257.013 599.625 258.68 602.625C260.346 605.625 262.638 608 265.555 609.75C268.471 611.5 271.805 612.375 275.555 612.375C278.721 612.375 281.596 611.833 284.18 610.75C286.846 609.583 289.138 607.917 291.055 605.75L298.43 613.25C295.68 616.417 292.305 618.875 288.305 620.625C284.388 622.375 280.138 623.25 275.555 623.25ZM333.462 623.25C328.629 623.25 324.254 622.167 320.337 620C316.504 617.75 313.504 614.667 311.337 610.75C309.17 606.833 308.087 602.292 308.087 597.125V562.625H319.337V596.625C319.337 599.875 319.879 602.708 320.962 605.125C322.129 607.458 323.795 609.25 325.962 610.5C328.129 611.75 330.67 612.375 333.587 612.375C338.004 612.375 341.462 611 343.962 608.25C346.462 605.417 347.712 601.542 347.712 596.625V562.625H358.962V597.125C358.962 602.292 357.879 606.833 355.712 610.75C353.545 614.667 350.545 617.75 346.712 620C342.962 622.167 338.545 623.25 333.462 623.25Z" fill="#0D1B2A"/>
<path d="M389.29 622V606.75H410.04C413.873 606.75 416.873 605.625 419.04 603.375C421.207 601.125 422.29 598.375 422.29 595.125C422.29 592.875 421.79 590.875 420.79 589.125C419.79 587.375 418.373 586 416.54 585C414.79 584 412.623 583.5 410.04 583.5H389.29V568.625H408.415C411.665 568.625 414.29 567.833 416.29 566.25C418.29 564.583 419.29 562.083 419.29 558.75C419.29 555.5 418.29 553.083 416.29 551.5C414.29 549.833 411.665 549 408.415 549H389.29V533.75H412.165C417.832 533.75 422.623 534.792 426.54 536.875C430.54 538.958 433.582 541.75 435.665 545.25C437.748 548.75 438.79 552.625 438.79 556.875C438.79 562.292 437.04 566.875 433.54 570.625C430.04 574.375 424.873 576.958 418.04 578.375L418.54 571.75C425.957 573.167 431.665 576.042 435.665 580.375C439.748 584.708 441.79 590.042 441.79 596.375C441.79 601.208 440.582 605.583 438.165 609.5C435.832 613.333 432.415 616.375 427.915 618.625C423.498 620.875 418.165 622 411.915 622H389.29ZM374.29 622V533.75H393.665V622H374.29ZM481.868 623.375C475.618 623.375 469.951 622 464.868 619.25C459.868 616.417 455.91 612.583 452.993 607.75C450.076 602.917 448.618 597.5 448.618 591.5C448.618 585.5 450.076 580.125 452.993 575.375C455.91 570.625 459.868 566.875 464.868 564.125C469.868 561.292 475.535 559.875 481.868 559.875C488.201 559.875 493.868 561.25 498.868 564C503.868 566.75 507.827 570.542 510.743 575.375C513.66 580.125 515.118 585.5 515.118 591.5C515.118 597.5 513.66 602.917 510.743 607.75C507.827 612.583 503.868 616.417 498.868 619.25C493.868 622 488.201 623.375 481.868 623.375ZM481.868 606C484.618 606 487.035 605.417 489.118 604.25C491.201 603 492.785 601.292 493.868 599.125C495.035 596.875 495.618 594.333 495.618 591.5C495.618 588.667 495.035 586.208 493.868 584.125C492.701 581.958 491.076 580.292 488.993 579.125C486.993 577.875 484.618 577.25 481.868 577.25C479.201 577.25 476.826 577.875 474.743 579.125C472.66 580.292 471.035 581.958 469.868 584.125C468.701 586.292 468.118 588.792 468.118 591.625C468.118 594.375 468.701 596.875 469.868 599.125C471.035 601.292 472.66 603 474.743 604.25C476.826 605.417 479.201 606 481.868 606ZM550.015 623.25C544.431 623.25 539.431 621.875 535.015 619.125C530.681 616.375 527.223 612.625 524.64 607.875C522.14 603.125 520.89 597.708 520.89 591.625C520.89 585.542 522.14 580.125 524.64 575.375C527.223 570.625 530.681 566.875 535.015 564.125C539.431 561.375 544.431 560 550.015 560C554.098 560 557.765 560.792 561.015 562.375C564.348 563.958 567.056 566.167 569.14 569C571.223 571.75 572.39 574.917 572.64 578.5V604.75C572.39 608.333 571.223 611.542 569.14 614.375C567.14 617.125 564.473 619.292 561.14 620.875C557.806 622.458 554.098 623.25 550.015 623.25ZM553.89 606C557.973 606 561.265 604.667 563.765 602C566.265 599.25 567.515 595.792 567.515 591.625C567.515 588.792 566.931 586.292 565.765 584.125C564.681 581.958 563.098 580.292 561.015 579.125C559.015 577.875 556.681 577.25 554.015 577.25C551.348 577.25 548.973 577.875 546.89 579.125C544.89 580.292 543.265 581.958 542.015 584.125C540.848 586.292 540.265 588.792 540.265 591.625C540.265 594.375 540.848 596.833 542.015 599C543.181 601.167 544.806 602.875 546.89 604.125C548.973 605.375 551.306 606 553.89 606ZM566.765 622V605.625L569.64 590.875L566.765 576.125V561.25H585.515V622H566.765ZM598.98 622V561.25H618.105V622H598.98ZM618.105 588.625L610.105 582.375C611.689 575.292 614.355 569.792 618.105 565.875C621.855 561.958 627.064 560 633.73 560C636.647 560 639.189 560.458 641.355 561.375C643.605 562.208 645.564 563.542 647.23 565.375L635.855 579.75C635.022 578.833 633.98 578.125 632.73 577.625C631.48 577.125 630.064 576.875 628.48 576.875C625.314 576.875 622.772 577.875 620.855 579.875C619.022 581.792 618.105 584.708 618.105 588.625ZM676.491 623.25C670.741 623.25 665.616 621.875 661.116 619.125C656.7 616.375 653.2 612.625 650.616 607.875C648.116 603.125 646.866 597.708 646.866 591.625C646.866 585.542 648.116 580.125 650.616 575.375C653.2 570.625 656.7 566.875 661.116 564.125C665.616 561.375 670.741 560 676.491 560C680.658 560 684.408 560.792 687.741 562.375C691.158 563.958 693.95 566.167 696.116 569C698.366 571.75 699.616 574.917 699.866 578.5V604.125C699.616 607.708 698.408 610.958 696.241 613.875C694.075 616.708 691.283 619 687.866 620.75C684.45 622.417 680.658 623.25 676.491 623.25ZM679.866 606C682.616 606 684.991 605.417 686.991 604.25C688.991 603 690.575 601.292 691.741 599.125C692.908 596.958 693.491 594.458 693.491 591.625C693.491 588.792 692.908 586.333 691.741 584.25C690.658 582.083 689.075 580.375 686.991 579.125C684.991 577.875 682.658 577.25 679.991 577.25C677.325 577.25 674.95 577.875 672.866 579.125C670.866 580.375 669.241 582.083 667.991 584.25C666.825 586.417 666.241 588.875 666.241 591.625C666.241 594.375 666.825 596.833 667.991 599C669.158 601.167 670.783 602.875 672.866 604.125C674.95 605.375 677.283 606 679.866 606ZM711.491 622H692.741V605.625L695.616 590.875L692.366 576.125V531.25H711.491V622Z" fill="#FF7A00"/>
</svg>
