<svg width="1262" height="512" viewBox="0 0 1262 512" fill="none" xmlns="http://www.w3.org/2000/svg">
<path d="M257.892 164.867C273.639 165.102 288.472 169.003 301.591 175.745L285.304 203.392C276.849 199.343 267.404 197.012 257.415 196.863C220.442 196.313 190.022 225.839 189.471 262.813C188.92 299.786 218.446 330.206 255.42 330.757C292.393 331.308 322.813 301.781 323.364 264.808C323.456 258.643 322.711 252.661 321.235 246.969L341.295 212.917C350.478 228.198 355.646 246.147 355.361 265.284C354.546 319.929 309.588 363.567 254.943 362.753C200.299 361.939 156.66 316.98 157.474 262.336C158.289 207.691 203.247 164.053 257.892 164.867Z" fill="#0D1B2A"/>
<path d="M257.892 164.867L257.899 164.367V164.367L257.892 164.867ZM301.591 175.745L302.022 175.999L302.291 175.542L301.819 175.3L301.591 175.745ZM285.304 203.392L285.088 203.843L285.502 204.041L285.735 203.646L285.304 203.392ZM257.415 196.863L257.422 196.364V196.364L257.415 196.863ZM189.471 262.813L188.971 262.805V262.805L189.471 262.813ZM255.42 330.757L255.412 331.257V331.257L255.42 330.757ZM323.364 264.808L323.864 264.815V264.815L323.364 264.808ZM321.235 246.969L320.804 246.716L320.699 246.894L320.751 247.095L321.235 246.969ZM341.295 212.917L341.724 212.659L341.291 211.939L340.865 212.663L341.295 212.917ZM355.361 265.284L355.86 265.292V265.292L355.361 265.284ZM254.943 362.753L254.936 363.253V363.253L254.943 362.753ZM157.474 262.336L156.974 262.328V262.328L157.474 262.336ZM257.892 164.867L257.884 165.367C273.553 165.6 288.311 169.482 301.362 176.19L301.591 175.745L301.819 175.3C288.634 168.524 273.725 164.603 257.899 164.367L257.892 164.867ZM301.591 175.745L301.16 175.491L284.873 203.138L285.304 203.392L285.735 203.646L302.022 175.999L301.591 175.745ZM285.304 203.392L285.52 202.941C277.001 198.861 267.485 196.513 257.422 196.364L257.415 196.863L257.407 197.363C267.323 197.511 276.696 199.824 285.088 203.843L285.304 203.392ZM257.415 196.863L257.422 196.364C220.173 195.809 189.526 225.556 188.971 262.805L189.471 262.813L189.971 262.82C190.518 226.123 220.71 196.817 257.407 197.363L257.415 196.863ZM189.471 262.813L188.971 262.805C188.416 300.055 218.163 330.702 255.412 331.257L255.42 330.757L255.427 330.257C218.73 329.71 189.424 299.517 189.971 262.82L189.471 262.813ZM255.42 330.757L255.412 331.257C292.662 331.812 323.309 302.065 323.864 264.815L323.364 264.808L322.864 264.8C322.317 301.498 292.125 330.804 255.427 330.257L255.42 330.757ZM323.364 264.808L323.864 264.815C323.957 258.605 323.206 252.579 321.719 246.844L321.235 246.969L320.751 247.095C322.215 252.744 322.955 258.681 322.864 264.8L323.364 264.808ZM321.235 246.969L321.666 247.223L341.726 213.171L341.295 212.917L340.865 212.663L320.804 246.716L321.235 246.969ZM341.295 212.917L340.867 213.174C350.003 228.378 355.144 246.235 354.861 265.277L355.361 265.284L355.86 265.292C356.147 246.058 350.953 228.018 341.724 212.659L341.295 212.917ZM355.361 265.284L354.861 265.277C354.05 319.645 309.319 363.063 254.951 362.253L254.943 362.753L254.936 363.253C309.856 364.071 355.042 320.213 355.86 265.292L355.361 265.284ZM254.943 362.753L254.951 362.253C200.582 361.443 157.164 316.712 157.974 262.343L157.474 262.336L156.974 262.328C156.156 317.249 200.015 362.435 254.936 363.253L254.943 362.753ZM157.474 262.336L157.974 262.343C158.784 207.975 203.516 164.557 257.884 165.367L257.892 164.867L257.899 164.367C202.978 163.549 157.793 207.408 156.974 262.328L157.474 262.336Z" fill="#0D1B2A"/>
<path d="M337.758 166.636C340.265 162.77 342.624 157.106 346.472 159.624C350.319 162.143 347.009 166.566 344.502 170.432L254.138 317L221.884 273.643C219.134 269.947 219.887 264.712 223.565 261.95C227.243 259.187 232.454 259.944 235.203 263.639L253.202 287.833L337.758 166.636Z" fill="#FF7A00" stroke="#FF7A00" stroke-width="10" stroke-linecap="round"/>
<path d="M505.7 308.5C498.3 308.5 491.4 307.15 485 304.45C478.6 301.65 473 297.8 468.2 292.9C463.4 287.9 459.65 282.15 456.95 275.65C454.35 269.15 453.05 262.2 453.05 254.8C453.05 247.3 454.35 240.35 456.95 233.95C459.65 227.45 463.35 221.75 468.05 216.85C472.85 211.95 478.4 208.15 484.7 205.45C491.1 202.75 498 201.4 505.4 201.4C512.8 201.4 519.65 202.75 525.95 205.45C532.35 208.15 537.95 211.95 542.75 216.85C547.55 221.75 551.3 227.45 554 233.95C556.7 240.45 558.05 247.45 558.05 254.95C558.05 262.35 556.7 269.3 554 275.8C551.3 282.3 547.55 288 542.75 292.9C538.05 297.8 532.5 301.65 526.1 304.45C519.8 307.15 513 308.5 505.7 308.5ZM505.4 295C512.9 295 519.45 293.3 525.05 289.9C530.75 286.4 535.25 281.65 538.55 275.65C541.85 269.55 543.5 262.6 543.5 254.8C543.5 249 542.55 243.7 540.65 238.9C538.75 234 536.1 229.75 532.7 226.15C529.3 222.55 525.3 219.8 520.7 217.9C516.1 215.9 511 214.9 505.4 214.9C498 214.9 491.45 216.6 485.75 220C480.15 223.4 475.7 228.1 472.4 234.1C469.2 240.1 467.6 247 467.6 254.8C467.6 260.6 468.5 266 470.3 271C472.2 275.9 474.8 280.15 478.1 283.75C481.5 287.25 485.5 290 490.1 292C494.8 294 499.9 295 505.4 295ZM607.542 308.5C600.542 308.5 594.192 306.85 588.492 303.55C582.892 300.25 578.442 295.8 575.142 290.2C571.942 284.5 570.342 278.2 570.342 271.3C570.342 264.3 571.942 258 575.142 252.4C578.442 246.8 582.892 242.4 588.492 239.2C594.192 235.9 600.542 234.25 607.542 234.25C613.042 234.25 618.142 235.3 622.842 237.4C627.542 239.4 631.592 242.35 634.992 246.25L625.992 255.25C623.792 252.65 621.092 250.7 617.892 249.4C614.792 248 611.342 247.3 607.542 247.3C603.042 247.3 599.042 248.35 595.542 250.45C592.042 252.45 589.292 255.25 587.292 258.85C585.292 262.45 584.292 266.6 584.292 271.3C584.292 276 585.292 280.15 587.292 283.75C589.292 287.35 592.042 290.2 595.542 292.3C599.042 294.4 603.042 295.45 607.542 295.45C611.342 295.45 614.792 294.8 617.892 293.5C621.092 292.1 623.842 290.1 626.142 287.5L634.992 296.5C631.692 300.3 627.642 303.25 622.842 305.35C618.142 307.45 613.042 308.5 607.542 308.5ZM679.466 308.5C672.466 308.5 666.116 306.85 660.416 303.55C654.816 300.25 650.366 295.8 647.066 290.2C643.866 284.5 642.266 278.2 642.266 271.3C642.266 264.3 643.866 258 647.066 252.4C650.366 246.8 654.816 242.4 660.416 239.2C666.116 235.9 672.466 234.25 679.466 234.25C684.966 234.25 690.066 235.3 694.766 237.4C699.466 239.4 703.516 242.35 706.916 246.25L697.916 255.25C695.716 252.65 693.016 250.7 689.816 249.4C686.716 248 683.266 247.3 679.466 247.3C674.966 247.3 670.966 248.35 667.466 250.45C663.966 252.45 661.216 255.25 659.216 258.85C657.216 262.45 656.216 266.6 656.216 271.3C656.216 276 657.216 280.15 659.216 283.75C661.216 287.35 663.966 290.2 667.466 292.3C670.966 294.4 674.966 295.45 679.466 295.45C683.266 295.45 686.716 294.8 689.816 293.5C693.016 292.1 695.766 290.1 698.066 287.5L706.916 296.5C703.616 300.3 699.566 303.25 694.766 305.35C690.066 307.45 684.966 308.5 679.466 308.5ZM748.954 308.5C743.154 308.5 737.904 307.2 733.204 304.6C728.604 301.9 725.004 298.2 722.404 293.5C719.804 288.8 718.504 283.35 718.504 277.15V235.75H732.004V276.55C732.004 280.45 732.654 283.85 733.954 286.75C735.354 289.55 737.354 291.7 739.954 293.2C742.554 294.7 745.604 295.45 749.104 295.45C754.404 295.45 758.554 293.8 761.554 290.5C764.554 287.1 766.054 282.45 766.054 276.55V235.75H779.554V277.15C779.554 283.35 778.254 288.8 775.654 293.5C773.054 298.2 769.454 301.9 764.854 304.6C760.354 307.2 755.054 308.5 748.954 308.5Z" fill="#0D1B2A"/>
<path d="M815.948 307V288.7H840.848C845.448 288.7 849.048 287.35 851.648 284.65C854.248 281.95 855.548 278.65 855.548 274.75C855.548 272.05 854.948 269.65 853.748 267.55C852.548 265.45 850.848 263.8 848.648 262.6C846.548 261.4 843.948 260.8 840.848 260.8H815.948V242.95H838.898C842.798 242.95 845.948 242 848.348 240.1C850.748 238.1 851.948 235.1 851.948 231.1C851.948 227.2 850.748 224.3 848.348 222.4C845.948 220.4 842.798 219.4 838.898 219.4H815.948V201.1H843.398C850.198 201.1 855.948 202.35 860.648 204.85C865.448 207.35 869.098 210.7 871.598 214.9C874.098 219.1 875.348 223.75 875.348 228.85C875.348 235.35 873.248 240.85 869.048 245.35C864.848 249.85 858.648 252.95 850.448 254.65L851.048 246.7C859.948 248.4 866.798 251.85 871.598 257.05C876.498 262.25 878.948 268.65 878.948 276.25C878.948 282.05 877.498 287.3 874.598 292C871.798 296.6 867.698 300.25 862.298 302.95C856.998 305.65 850.598 307 843.098 307H815.948ZM797.948 307V201.1H821.198V307H797.948ZM927.042 308.65C919.542 308.65 912.742 307 906.642 303.7C900.642 300.3 895.892 295.7 892.392 289.9C888.892 284.1 887.142 277.6 887.142 270.4C887.142 263.2 888.892 256.75 892.392 251.05C895.892 245.35 900.642 240.85 906.642 237.55C912.642 234.15 919.442 232.45 927.042 232.45C934.642 232.45 941.442 234.1 947.442 237.4C953.442 240.7 958.192 245.25 961.692 251.05C965.192 256.75 966.942 263.2 966.942 270.4C966.942 277.6 965.192 284.1 961.692 289.9C958.192 295.7 953.442 300.3 947.442 303.7C941.442 307 934.642 308.65 927.042 308.65ZM927.042 287.8C930.342 287.8 933.242 287.1 935.742 285.7C938.242 284.2 940.142 282.15 941.442 279.55C942.842 276.85 943.542 273.8 943.542 270.4C943.542 267 942.842 264.05 941.442 261.55C940.042 258.95 938.092 256.95 935.592 255.55C933.192 254.05 930.342 253.3 927.042 253.3C923.842 253.3 920.992 254.05 918.492 255.55C915.992 256.95 914.042 258.95 912.642 261.55C911.242 264.15 910.542 267.15 910.542 270.55C910.542 273.85 911.242 276.85 912.642 279.55C914.042 282.15 915.992 284.2 918.492 285.7C920.992 287.1 923.842 287.8 927.042 287.8ZM1008.82 308.5C1002.12 308.5 996.118 306.85 990.818 303.55C985.618 300.25 981.468 295.75 978.368 290.05C975.368 284.35 973.868 277.85 973.868 270.55C973.868 263.25 975.368 256.75 978.368 251.05C981.468 245.35 985.618 240.85 990.818 237.55C996.118 234.25 1002.12 232.6 1008.82 232.6C1013.72 232.6 1018.12 233.55 1022.02 235.45C1026.02 237.35 1029.27 240 1031.77 243.4C1034.27 246.7 1035.67 250.5 1035.97 254.8V286.3C1035.67 290.6 1034.27 294.45 1031.77 297.85C1029.37 301.15 1026.17 303.75 1022.17 305.65C1018.17 307.55 1013.72 308.5 1008.82 308.5ZM1013.47 287.8C1018.37 287.8 1022.32 286.2 1025.32 283C1028.32 279.7 1029.82 275.55 1029.82 270.55C1029.82 267.15 1029.12 264.15 1027.72 261.55C1026.42 258.95 1024.52 256.95 1022.02 255.55C1019.62 254.05 1016.82 253.3 1013.62 253.3C1010.42 253.3 1007.57 254.05 1005.07 255.55C1002.67 256.95 1000.72 258.95 999.218 261.55C997.818 264.15 997.118 267.15 997.118 270.55C997.118 273.85 997.818 276.8 999.218 279.4C1000.62 282 1002.57 284.05 1005.07 285.55C1007.57 287.05 1010.37 287.8 1013.47 287.8ZM1028.92 307V287.35L1032.37 269.65L1028.92 251.95V234.1H1051.42V307H1028.92ZM1067.58 307V234.1H1090.53V307H1067.58ZM1090.53 266.95L1080.93 259.45C1082.83 250.95 1086.03 244.35 1090.53 239.65C1095.03 234.95 1101.28 232.6 1109.28 232.6C1112.78 232.6 1115.83 233.15 1118.43 234.25C1121.13 235.25 1123.48 236.85 1125.48 239.05L1111.83 256.3C1110.83 255.2 1109.58 254.35 1108.08 253.75C1106.58 253.15 1104.88 252.85 1102.98 252.85C1099.18 252.85 1096.13 254.05 1093.83 256.45C1091.63 258.75 1090.53 262.25 1090.53 266.95ZM1160.59 308.5C1153.69 308.5 1147.54 306.85 1142.14 303.55C1136.84 300.25 1132.64 295.75 1129.54 290.05C1126.54 284.35 1125.04 277.85 1125.04 270.55C1125.04 263.25 1126.54 256.75 1129.54 251.05C1132.64 245.35 1136.84 240.85 1142.14 237.55C1147.54 234.25 1153.69 232.6 1160.59 232.6C1165.59 232.6 1170.09 233.55 1174.09 235.45C1178.19 237.35 1181.54 240 1184.14 243.4C1186.84 246.7 1188.34 250.5 1188.64 254.8V285.55C1188.34 289.85 1186.89 293.75 1184.29 297.25C1181.69 300.65 1178.34 303.4 1174.24 305.5C1170.14 307.5 1165.59 308.5 1160.59 308.5ZM1164.64 287.8C1167.94 287.8 1170.79 287.1 1173.19 285.7C1175.59 284.2 1177.49 282.15 1178.89 279.55C1180.29 276.95 1180.99 273.95 1180.99 270.55C1180.99 267.15 1180.29 264.2 1178.89 261.7C1177.59 259.1 1175.69 257.05 1173.19 255.55C1170.79 254.05 1167.99 253.3 1164.79 253.3C1161.59 253.3 1158.74 254.05 1156.24 255.55C1153.84 257.05 1151.89 259.1 1150.39 261.7C1148.99 264.3 1148.29 267.25 1148.29 270.55C1148.29 273.85 1148.99 276.8 1150.39 279.4C1151.79 282 1153.74 284.05 1156.24 285.55C1158.74 287.05 1161.54 287.8 1164.64 287.8ZM1202.59 307H1180.09V287.35L1183.54 269.65L1179.64 251.95V198.1H1202.59V307Z" fill="#FF7A00"/>
</svg>
