<svg width="64" height="64" viewBox="0 0 64 64" fill="none" xmlns="http://www.w3.org/2000/svg" role="img" aria-labelledby="title desc">
  <title id="title">OccuBoard favicon</title>
  <desc id="desc">OccuBoard compact cloud, chart, and search icon.</desc>
  <defs>
    <linearGradient id="bg" x1="8" y1="58" x2="58" y2="8" gradientUnits="userSpaceOnUse">
      <stop offset="0" stop-color="#7C3AED"/>
      <stop offset="0.5" stop-color="#06B6D4"/>
      <stop offset="1" stop-color="#34D399"/>
    </linearGradient>
  </defs>

  <rect x="4" y="4" width="56" height="56" rx="14" fill="url(#bg)"/>

  <path d="M18.7 45.5C12.8 45.5 8 40.7 8 34.8C8 29.2 12.3 24.6 17.8 24.1C19.8 18.4 25.1 14.4 31.5 14.4C38.9 14.4 45 19.8 46 26.9C51 27.4 54.8 31.4 54.8 36.4C54.8 41.4 50.7 45.5 45.7 45.5H18.7Z" fill="white" opacity="0.95"/>

  <rect x="17" y="32" width="5" height="10" rx="1.2" fill="#34D399"/>
  <rect x="25" y="26" width="5" height="16" rx="1.2" fill="#22C55E"/>
  <rect x="33" y="20" width="5" height="22" rx="1.2" fill="#0EA5E9"/>

  <circle cx="43" cy="39" r="8" fill="#F8FAFC" stroke="#0F5EA8" stroke-width="3"/>
  <path d="M49 45L56 52" stroke="#0F5EA8" stroke-width="3.4" stroke-linecap="round"/>
</svg>
