<svg width="180" height="140" viewBox="0 0 180 140" fill="none" xmlns="http://www.w3.org/2000/svg" role="img" aria-labelledby="title desc">
  <title id="title">OccuBoard mark</title>
  <desc id="desc">Cloud, bar chart, and magnifying glass icon for OccuBoard.</desc>
  <defs>
    <linearGradient id="occuGradient" x1="16" y1="124" x2="160" y2="14" gradientUnits="userSpaceOnUse">
      <stop offset="0" stop-color="#7C3AED"/>
      <stop offset="0.48" stop-color="#06B6D4"/>
      <stop offset="1" stop-color="#34D399"/>
    </linearGradient>
  </defs>

  <path d="M46 116C25 116 8 99 8 78C8 58.1 23.3 41.7 42.8 40.1C49.5 20.1 68.5 6 90.5 6C116.7 6 138.6 25.3 142.2 50.5C159.8 52.1 173 66.3 173 83.8C173 101.6 158.6 116 140.8 116H46Z" fill="url(#occuGradient)"/>
  <path d="M46 116C25 116 8 99 8 78C8 58.1 23.3 41.7 42.8 40.1C49.5 20.1 68.5 6 90.5 6C116.7 6 138.6 25.3 142.2 50.5C159.8 52.1 173 66.3 173 83.8C173 101.6 158.6 116 140.8 116H46Z" stroke="#0F172A" stroke-opacity="0.16" stroke-width="4"/>

  <rect x="43" y="75" width="16" height="28" rx="3" fill="#FFFFFF"/>
  <rect x="68" y="56" width="16" height="47" rx="3" fill="#FFFFFF"/>
  <rect x="93" y="35" width="16" height="68" rx="3" fill="#FFFFFF"/>

  <rect x="45" y="77" width="12" height="24" rx="2" fill="#34D399" opacity="0.78"/>
  <rect x="70" y="58" width="12" height="43" rx="2" fill="#22C55E" opacity="0.62"/>
  <rect x="95" y="37" width="12" height="64" rx="2" fill="#0EA5E9" opacity="0.66"/>

  <circle cx="124" cy="82" r="25" fill="#F8FAFC" stroke="#0F5EA8" stroke-width="7"/>
  <circle cx="124" cy="82" r="12" fill="#06B6D4" opacity="0.5"/>
  <path d="M143 101L164 122" stroke="#0F5EA8" stroke-width="8" stroke-linecap="round"/>
</svg>
